<svg width="94" height="24" viewBox="0 0 94 24" fill="none" xmlns="http://www.w3.org/2000/svg">
<g clip-path="url(#clip0)">
<path d="M35.187 19L30.378 4.342H32.835L35.166 11.587L36.573 16.69H36.657L38.085 11.587L40.416 4.342H42.81L37.938 19H35.187ZM48.5818 19.252C47.7978 19.252 47.0978 19.119 46.4818 18.853C45.8658 18.587 45.3408 18.209 44.9068 17.719C44.4728 17.215 44.1368 16.613 43.8988 15.913C43.6748 15.199 43.5628 14.408 43.5628 13.54C43.5628 12.672 43.6748 11.888 43.8988 11.188C44.1368 10.474 44.4728 9.872 44.9068 9.382C45.3408 8.878 45.8658 8.493 46.4818 8.227C47.0978 7.961 47.7978 7.828 48.5818 7.828C49.3798 7.828 50.0798 7.968 50.6818 8.248C51.2978 8.528 51.8088 8.92 52.2148 9.424C52.6208 9.914 52.9218 10.488 53.1178 11.146C53.3278 11.804 53.4328 12.511 53.4328 13.267V14.128H45.9358V14.485C45.9358 15.325 46.1808 16.018 46.6708 16.564C47.1748 17.096 47.8888 17.362 48.8128 17.362C49.4848 17.362 50.0518 17.215 50.5138 16.921C50.9758 16.627 51.3678 16.228 51.6898 15.724L53.0338 17.047C52.6278 17.719 52.0398 18.258 51.2698 18.664C50.4998 19.056 49.6038 19.252 48.5818 19.252ZM48.5818 9.613C48.1898 9.613 47.8258 9.683 47.4898 9.823C47.1678 9.963 46.8878 10.159 46.6498 10.411C46.4258 10.663 46.2508 10.964 46.1248 11.314C45.9988 11.664 45.9358 12.049 45.9358 12.469V12.616H51.0178V12.406C51.0178 11.566 50.8008 10.894 50.3668 10.39C49.9328 9.872 49.3378 9.613 48.5818 9.613ZM60.3377 19.252C59.5537 19.252 58.8537 19.119 58.2377 18.853C57.6217 18.587 57.1037 18.209 56.6837 17.719C56.2637 17.215 55.9417 16.613 55.7177 15.913C55.4937 15.199 55.3817 14.408 55.3817 13.54C55.3817 12.672 55.4937 11.888 55.7177 11.188C55.9417 10.474 56.2637 9.872 56.6837 9.382C57.1037 8.878 57.6217 8.493 58.2377 8.227C58.8537 7.961 59.5537 7.828 60.3377 7.828C61.4297 7.828 62.3257 8.073 63.0257 8.563C63.7257 9.053 64.2367 9.704 64.5587 10.516L62.6687 11.398C62.5147 10.894 62.2417 10.495 61.8497 10.201C61.4717 9.893 60.9677 9.739 60.3377 9.739C59.4977 9.739 58.8607 10.005 58.4267 10.537C58.0067 11.055 57.7967 11.734 57.7967 12.574V14.527C57.7967 15.367 58.0067 16.053 58.4267 16.585C58.8607 17.103 59.4977 17.362 60.3377 17.362C61.0097 17.362 61.5417 17.201 61.9337 16.879C62.3397 16.543 62.6617 16.102 62.8997 15.556L64.6427 16.48C64.2787 17.376 63.7327 18.062 63.0047 18.538C62.2767 19.014 61.3877 19.252 60.3377 19.252ZM69.9958 19C69.1978 19 68.5958 18.797 68.1898 18.391C67.7838 17.971 67.5808 17.383 67.5808 16.627V9.949H65.8798V8.08H66.8038C67.1818 8.08 67.4408 7.996 67.5808 7.828C67.7348 7.66 67.8118 7.387 67.8118 7.009V5.098H69.8698V8.08H72.1588V9.949H69.8698V17.131H71.9908V19H69.9958ZM78.9937 19.252C78.2377 19.252 77.5447 19.119 76.9147 18.853C76.2987 18.587 75.7737 18.209 75.3397 17.719C74.9057 17.215 74.5697 16.613 74.3317 15.913C74.0937 15.199 73.9747 14.408 73.9747 13.54C73.9747 12.672 74.0937 11.888 74.3317 11.188C74.5697 10.474 74.9057 9.872 75.3397 9.382C75.7737 8.878 76.2987 8.493 76.9147 8.227C77.5447 7.961 78.2377 7.828 78.9937 7.828C79.7497 7.828 80.4357 7.961 81.0517 8.227C81.6817 8.493 82.2137 8.878 82.6477 9.382C83.0817 9.872 83.4177 10.474 83.6557 11.188C83.8937 11.888 84.0127 12.672 84.0127 13.54C84.0127 14.408 83.8937 15.199 83.6557 15.913C83.4177 16.613 83.0817 17.215 82.6477 17.719C82.2137 18.209 81.6817 18.587 81.0517 18.853C80.4357 19.119 79.7497 19.252 78.9937 19.252ZM78.9937 17.362C79.7777 17.362 80.4077 17.124 80.8837 16.648C81.3597 16.158 81.5977 15.43 81.5977 14.464V12.616C81.5977 11.65 81.3597 10.929 80.8837 10.453C80.4077 9.963 79.7777 9.718 78.9937 9.718C78.2097 9.718 77.5797 9.963 77.1037 10.453C76.6277 10.929 76.3897 11.65 76.3897 12.616V14.464C76.3897 15.43 76.6277 16.158 77.1037 16.648C77.5797 17.124 78.2097 17.362 78.9937 17.362ZM86.7132 19V8.08H89.0022V10.18H89.1072C89.2612 9.62 89.5832 9.13 90.0732 8.71C90.5632 8.29 91.2422 8.08 92.1102 8.08H92.7192V10.285H91.8162C90.9062 10.285 90.2062 10.432 89.7162 10.726C89.2402 11.02 89.0022 11.454 89.0022 12.028V19H86.7132Z" fill="black"/>
<path d="M12 24C18.6274 24 24 18.6274 24 12C24 5.37258 18.6274 0 12 0C5.37258 0 0 5.37258 0 12C0 18.6274 5.37258 24 12 24Z" fill="url(#paint0_linear)"/>
<path d="M11.9998 13.5819L9.35756 6H6L10.4703 18H13.5211L18 6H14.6952L11.9998 13.5819Z" fill="white"/>
</g>
<defs>
<linearGradient id="paint0_linear" x1="12" y1="0" x2="12" y2="24" gradientUnits="userSpaceOnUse">
<stop stop-color="#9055A2"/>
<stop offset="1" stop-color="#56B4D3"/>
</linearGradient>
<clipPath id="clip0">
<rect width="94" height="24" fill="white"/>
</clipPath>
</defs>
</svg>
